<?xml version="1.0" standalone="no"?>
<!DOCTYPE svg PUBLIC "-//W3C//DTD SVG 20010904//EN"
 "http://www.w3.org/TR/2001/REC-SVG-20010904/DTD/svg10.dtd">
<svg version="1.0" xmlns="http://www.w3.org/2000/svg"
 width="512.000000pt" height="512.000000pt" viewBox="0 0 512.000000 512.000000"
 preserveAspectRatio="xMidYMid meet">
<metadata>
Created by potrace 1.11, written by Peter Selinger 2001-2013
</metadata>
<g transform="translate(0.000000,512.000000) scale(0.100000,-0.100000)"
fill="#000000" stroke="none">
<path d="M2657 4398 c-209 -44 -386 -239 -412 -454 -3 -27 -11 -52 -18 -56
-32 -18 -126 -93 -176 -141 -197 -186 -320 -406 -367 -652 -17 -93 -24 -306
-11 -380 11 -68 18 -99 29 -140 5 -22 12 -48 14 -58 13 -70 137 -306 188 -358
53 -54 127 -73 192 -49 25 10 26 9 13 -6 -8 -10 -145 -148 -305 -308 -160
-160 -299 -306 -308 -324 -18 -35 -17 -69 5 -115 16 -34 165 -136 294 -200 96
-48 251 -101 325 -112 25 -3 54 -8 65 -10 11 -2 28 -4 38 -4 15 -1 17 -13 17
-117 0 -127 12 -171 54 -194 17 -9 70 -11 192 -8 152 3 173 6 212 26 64 34
118 88 147 145 31 65 33 78 35 212 l1 110 72 52 c273 199 457 503 494 816 12
106 6 348 -10 374 -3 4 -8 25 -11 47 -20 125 -129 355 -215 454 -40 46 -142
67 -194 41 -12 -6 121 132 296 308 174 176 318 326 318 334 9 109 -3 127 -139
217 -151 98 -339 179 -474 202 -35 6 -72 13 -83 15 -11 2 -28 4 -37 4 -16 1
-18 14 -18 131 0 146 -10 179 -58 199 -31 13 -103 12 -165 -1z"/>
</g>
</svg>
